<svg id="svg" version="1.1" xmlns="http://www.w3.org/2000/svg" xmlns:xlink="http://www.w3.org/1999/xlink" width="400" height="400" viewBox="0, 0, 400,400"><g id="svgg"><path id="path0" d="M206.929 130.893 C 206.551 131.114,205.791 132.119,205.242 133.127 C 204.693 134.136,203.476 136.279,202.538 137.891 C 201.600 139.502,200.018 142.314,199.023 144.141 C 198.028 145.967,196.446 148.779,195.508 150.391 C 194.569 152.002,192.987 154.814,191.992 156.641 C 190.997 158.467,189.415 161.279,188.477 162.891 C 187.539 164.502,186.132 166.963,185.352 168.359 C 184.048 170.692,182.122 174.029,179.492 178.516 C 178.925 179.482,177.695 181.592,176.758 183.203 C 175.821 184.814,174.594 186.924,174.031 187.891 C 173.469 188.857,172.410 190.615,171.679 191.797 C 170.947 192.979,169.717 195.088,168.945 196.484 C 168.173 197.881,166.943 199.990,166.211 201.172 C 165.479 202.354,164.245 204.463,163.469 205.859 C 161.852 208.767,159.356 213.080,157.546 216.094 C 153.048 223.584,152.654 224.851,154.265 226.654 L 155.404 227.930 171.727 228.125 L 188.050 228.320 190.098 231.250 C 191.224 232.861,193.855 236.729,195.943 239.844 C 198.032 242.959,200.194 246.035,200.749 246.680 C 201.304 247.324,200.167 246.326,198.222 244.461 C 194.258 240.658,193.234 240.200,190.722 241.103 C 189.103 241.685,189.047 241.680,189.274 240.966 C 190.014 238.632,187.336 235.547,184.570 235.547 C 181.238 235.547,181.089 235.819,175.909 251.380 C 171.755 263.859,170.703 266.535,170.703 264.624 C 170.703 264.288,168.918 262.179,166.736 259.936 L 162.770 255.859 166.709 251.811 C 171.937 246.437,172.403 243.425,168.341 241.250 C 165.632 239.800,164.599 240.359,158.074 246.811 C 148.844 255.937,148.849 255.721,157.674 264.488 C 164.682 271.449,165.607 271.959,168.418 270.420 L 169.866 269.627 169.526 270.522 C 168.180 274.062,172.895 277.483,176.529 275.603 C 177.994 274.846,178.132 274.508,183.215 259.197 C 186.876 248.169,187.677 246.095,187.967 246.892 C 188.159 247.420,190.107 249.653,192.296 251.855 L 196.275 255.859 192.298 259.863 C 187.860 264.331,187.287 265.337,187.895 267.595 C 188.548 270.020,191.424 271.620,193.814 270.889 C 195.026 270.518,206.592 259.103,207.220 257.658 L 207.711 256.527 209.533 259.221 C 210.536 260.702,212.309 263.232,213.474 264.844 C 214.640 266.455,216.738 269.468,218.138 271.539 C 224.308 280.668,225.139 280.337,235.762 264.523 C 248.483 245.587,252.471 239.584,255.273 235.157 C 256.777 232.780,258.766 229.668,259.693 228.240 C 262.473 223.959,262.500 223.873,262.500 219.149 C 262.500 214.430,262.327 213.919,258.790 208.203 C 258.058 207.021,257.003 205.264,256.445 204.297 C 255.887 203.330,254.833 201.572,254.102 200.391 C 252.834 198.342,252.105 197.108,249.640 192.840 C 247.901 189.828,243.158 185.290,240.150 183.760 C 233.965 180.614,233.064 180.467,220.048 180.482 L 208.398 180.496 205.273 182.142 C 193.810 188.183,194.906 204.374,207.395 213.477 C 208.279 214.121,209.698 215.176,210.547 215.820 C 211.396 216.465,212.807 217.520,213.683 218.164 C 219.920 222.756,222.408 225.107,222.091 226.107 C 221.609 227.627,218.425 228.906,215.125 228.906 C 211.693 228.906,211.784 228.983,207.267 222.266 C 201.877 214.250,200.509 212.367,199.261 211.252 L 198.035 210.156 190.809 210.156 L 183.584 210.156 184.974 207.520 C 185.739 206.069,186.963 203.916,187.695 202.734 C 188.426 201.553,189.481 199.795,190.039 198.828 C 190.597 197.861,191.652 196.104,192.384 194.922 C 193.115 193.740,194.349 191.631,195.125 190.234 C 195.901 188.838,197.304 186.377,198.242 184.766 C 199.180 183.154,200.586 180.693,201.367 179.297 C 202.148 177.900,203.554 175.439,204.491 173.828 C 205.429 172.217,206.641 170.107,207.186 169.141 C 207.730 168.174,208.501 166.972,208.900 166.470 L 209.624 165.558 210.964 167.756 C 211.702 168.966,212.832 170.819,213.477 171.875 C 214.121 172.931,215.248 174.778,215.980 175.980 C 217.793 178.953,217.614 178.906,227.141 178.906 L 235.582 178.906 236.541 177.947 C 237.735 176.754,237.846 174.375,236.771 173.002 C 236.370 172.490,235.483 171.016,234.799 169.727 C 234.116 168.438,232.958 166.416,232.227 165.234 C 231.496 164.053,230.441 162.295,229.883 161.328 C 229.325 160.361,228.270 158.604,227.539 157.422 C 226.808 156.240,225.750 154.482,225.187 153.516 C 224.625 152.549,223.398 150.439,222.461 148.828 C 221.524 147.217,220.297 145.107,219.735 144.141 C 219.172 143.174,218.114 141.416,217.383 140.234 C 216.653 139.053,215.698 137.441,215.262 136.653 C 212.149 131.024,209.660 129.303,206.929 130.893 M217.399 146.191 C 221.646 153.335,227.051 162.432,229.412 166.406 C 231.773 170.381,234.045 174.204,234.462 174.902 L 235.220 176.172 227.259 176.172 L 219.299 176.172 216.410 171.387 C 212.539 164.974,209.224 159.792,208.984 159.782 C 208.877 159.777,208.162 160.870,207.395 162.211 C 201.288 172.891,192.690 187.749,187.901 195.898 C 184.745 201.270,181.362 207.070,180.383 208.789 L 178.603 211.914 187.446 212.109 C 192.310 212.217,196.500 212.441,196.757 212.608 C 197.014 212.775,200.077 217.037,203.564 222.081 L 209.904 231.250 214.331 231.250 C 220.304 231.250,223.217 229.950,224.561 226.686 C 225.756 223.784,225.364 223.339,213.940 214.643 C 201.972 205.532,200.397 203.524,200.081 196.971 C 199.969 194.658,200.079 192.899,200.384 192.088 C 201.175 189.990,202.449 187.500,202.733 187.500 C 202.880 187.500,203.183 187.097,203.407 186.605 C 203.654 186.064,204.973 185.139,206.747 184.262 L 209.679 182.813 219.797 182.813 C 238.441 182.813,241.071 184.420,251.906 202.433 C 260.158 216.152,261.062 218.844,258.828 223.047 C 255.873 228.605,226.423 272.876,224.765 274.252 C 224.283 274.652,224.049 274.604,223.477 273.991 C 222.538 272.985,203.855 246.393,196.878 236.133 C 193.811 231.621,190.876 227.358,190.357 226.660 L 189.413 225.391 172.929 225.385 C 163.863 225.381,156.214 225.232,155.932 225.053 C 155.373 224.699,155.870 223.653,159.300 217.969 C 160.272 216.357,161.593 214.072,162.234 212.891 C 162.876 211.709,163.725 210.276,164.122 209.705 C 164.519 209.135,164.844 208.562,164.844 208.433 C 164.844 208.303,166.074 206.154,167.578 203.656 C 169.082 201.159,170.313 199.054,170.313 198.978 C 170.313 198.903,171.922 196.157,173.889 192.877 C 175.856 189.598,177.985 185.972,178.621 184.820 C 179.256 183.668,180.635 181.326,181.685 179.616 C 182.735 177.905,183.594 176.438,183.594 176.356 C 183.594 176.274,184.147 175.276,184.823 174.138 C 185.499 173.001,186.580 171.104,187.226 169.922 C 187.872 168.740,188.725 167.307,189.122 166.737 C 189.519 166.166,189.844 165.603,189.844 165.484 C 189.844 165.366,190.399 164.338,191.078 163.201 C 191.757 162.063,193.015 159.814,193.874 158.203 C 194.732 156.592,195.759 154.807,196.155 154.237 C 196.551 153.666,196.875 153.103,196.875 152.984 C 196.875 152.866,197.427 151.838,198.102 150.701 C 198.777 149.563,199.743 147.886,200.250 146.973 C 200.757 146.060,201.637 144.478,202.205 143.457 C 202.774 142.437,203.767 140.635,204.413 139.453 C 205.059 138.271,205.875 136.865,206.226 136.328 C 206.577 135.791,207.107 134.868,207.404 134.277 C 208.680 131.741,209.127 132.275,217.399 146.191 M214.648 194.980 C 211.453 196.865,212.454 198.149,223.402 206.215 C 236.077 215.554,237.683 217.599,237.691 224.414 C 237.701 233.173,231.224 240.058,221.037 242.118 L 217.659 242.801 219.825 245.912 C 225.401 253.923,225.414 253.939,225.915 253.423 C 226.179 253.152,227.785 250.908,229.485 248.438 C 231.185 245.967,234.086 241.748,235.933 239.063 C 237.779 236.377,239.932 233.294,240.716 232.211 C 245.780 225.223,246.150 220.030,242.154 212.016 C 234.255 196.172,232.659 194.803,221.875 194.626 C 217.449 194.553,215.185 194.664,214.648 194.980 M226.501 197.477 C 232.120 199.434,233.413 200.929,239.153 212.109 C 243.219 220.029,243.482 221.636,241.480 226.363 L 240.820 227.921 240.575 224.214 C 240.091 216.903,237.926 213.237,231.250 208.429 C 227.942 206.047,227.046 205.386,225.391 204.106 C 224.424 203.358,222.490 201.973,221.094 201.029 C 218.168 199.050,217.003 197.881,217.368 197.290 C 217.765 196.648,224.516 196.786,226.501 197.477 M186.328 238.281 C 187.613 239.566,187.299 240.865,181.709 257.418 C 175.852 274.759,175.772 274.916,173.178 274.004 C 170.780 273.160,170.834 272.873,176.719 255.200 C 182.827 236.859,183.580 235.533,186.328 238.281 M230.237 242.676 C 229.229 244.449,225.972 249.219,225.769 249.219 C 225.633 249.219,224.941 248.321,224.230 247.225 C 222.835 245.072,222.979 244.569,225.000 244.519 C 225.537 244.505,226.943 243.984,228.125 243.359 C 230.638 242.032,230.596 242.045,230.237 242.676 M167.105 242.828 C 170.299 243.684,169.569 245.744,164.114 251.270 L 159.583 255.859 164.166 260.455 C 168.794 265.095,169.480 266.272,168.451 267.813 C 168.092 268.351,166.617 269.141,165.971 269.141 C 164.941 269.141,153.125 256.924,153.125 255.859 C 153.125 254.870,164.913 242.570,165.848 242.583 C 166.048 242.586,166.613 242.697,167.105 242.828 M193.672 243.128 C 194.252 243.430,197.144 246.136,200.098 249.141 C 207.158 256.323,207.168 255.453,199.944 262.739 C 193.735 269.001,192.698 269.673,191.088 268.476 C 188.813 266.785,189.262 265.700,194.386 260.513 L 198.982 255.859 194.413 251.233 C 189.314 246.071,188.829 244.996,190.873 243.388 C 192.092 242.429,192.294 242.410,193.672 243.128 " stroke="none" fill="#f7f8f9" fill-rule="evenodd"></path><path id="path1" d="M213.336 165.767 C 213.612 166.382,213.909 166.673,213.995 166.412 C 214.082 166.152,213.857 165.649,213.494 165.294 C 212.877 164.690,212.867 164.720,213.336 165.767 M210.120 183.442 C 209.873 183.740,209.498 183.984,209.289 183.984 C 207.800 183.984,203.125 187.406,203.125 188.495 C 203.125 188.741,202.787 189.247,202.375 189.620 C 201.962 189.994,201.418 191.163,201.164 192.220 C 200.911 193.276,200.589 194.141,200.449 194.142 C 199.974 194.144,200.186 198.780,200.684 199.277 C 200.952 199.546,201.172 200.160,201.172 200.641 C 201.172 201.122,201.351 201.627,201.569 201.762 C 201.787 201.897,201.856 202.185,201.722 202.402 C 201.588 202.619,201.848 203.056,202.301 203.374 C 202.754 203.691,203.127 204.160,203.129 204.417 C 203.136 205.098,207.929 210.156,208.567 210.156 C 208.866 210.156,209.597 210.702,210.192 211.368 C 210.787 212.034,211.441 212.476,211.646 212.350 C 211.851 212.223,212.542 212.732,213.182 213.482 C 213.822 214.231,214.608 214.844,214.929 214.844 C 215.249 214.844,215.933 215.335,216.447 215.935 C 217.813 217.529,219.563 218.777,220.028 218.489 C 220.252 218.350,220.317 218.427,220.173 218.660 C 220.030 218.891,220.442 219.458,221.089 219.919 C 221.736 220.379,222.266 220.674,222.266 220.573 C 222.266 219.323,224.935 223.369,225.105 224.877 C 225.630 229.536,222.686 231.556,215.510 231.462 C 212.472 231.422,211.176 231.549,210.872 231.914 C 210.605 232.237,210.595 232.422,210.845 232.422 C 211.061 232.422,211.540 232.883,211.910 233.447 C 212.349 234.118,212.399 234.359,212.052 234.145 C 211.761 233.966,212.189 234.505,213.002 235.343 C 213.815 236.181,214.394 237.091,214.288 237.366 C 214.183 237.641,214.292 237.986,214.531 238.134 C 214.809 238.306,214.862 238.205,214.680 237.853 C 214.013 236.569,215.767 239.030,216.724 240.722 C 217.695 242.439,218.750 243.175,218.750 242.136 C 218.750 241.850,219.230 241.773,220.117 241.917 C 220.916 242.046,221.484 241.976,221.484 241.748 C 221.484 241.533,221.792 241.388,222.168 241.427 C 222.544 241.465,222.983 241.454,223.145 241.402 C 223.306 241.351,223.613 241.265,223.828 241.211 C 224.043 241.157,224.307 241.069,224.414 241.016 C 224.521 240.962,224.741 240.893,224.902 240.863 C 225.063 240.833,225.414 240.669,225.682 240.499 C 225.950 240.329,226.524 240.122,226.958 240.038 C 227.393 239.954,228.021 239.613,228.355 239.279 C 228.689 238.945,229.194 238.672,229.478 238.672 C 229.762 238.672,230.096 238.408,230.219 238.086 C 230.343 237.764,230.643 237.500,230.886 237.500 C 231.370 237.500,233.748 235.151,233.773 234.647 C 233.782 234.475,234.159 233.947,234.612 233.475 C 235.697 232.344,237.047 229.620,236.827 229.004 C 236.732 228.735,236.839 228.516,237.065 228.516 C 237.291 228.516,237.378 228.260,237.258 227.948 C 237.138 227.636,237.182 227.153,237.356 226.874 C 237.839 226.100,237.576 221.070,237.017 220.397 C 236.746 220.069,236.567 219.741,236.621 219.667 C 237.048 219.075,236.216 217.955,232.924 214.695 C 230.837 212.628,228.919 210.938,228.662 210.938 C 228.405 210.938,227.751 210.410,227.208 209.766 C 226.666 209.121,226.028 208.594,225.791 208.594 C 225.050 208.594,223.065 206.927,223.318 206.518 C 223.455 206.296,223.360 206.252,223.097 206.414 C 222.827 206.581,222.088 206.162,221.312 205.400 C 220.583 204.686,219.814 204.063,219.602 204.017 C 218.667 203.810,215.573 201.413,214.773 200.274 C 214.291 199.586,213.756 198.964,213.586 198.892 C 213.416 198.820,213.376 198.601,213.497 198.404 C 213.619 198.208,213.544 198.047,213.331 198.047 C 213.118 198.047,213.008 197.563,213.086 196.973 C 213.164 196.382,213.240 195.788,213.254 195.653 C 213.365 194.639,225.585 193.762,228.125 194.586 C 231.055 195.536,236.311 199.266,236.646 200.634 C 236.926 201.776,250.116 202.450,250.541 201.344 C 250.659 201.035,250.586 200.781,250.378 200.781 C 250.170 200.781,250.000 200.430,250.000 200.000 C 250.000 199.570,249.843 199.219,249.652 199.219 C 249.460 199.219,249.194 198.784,249.061 198.253 C 248.928 197.723,248.476 197.105,248.057 196.880 C 247.598 196.635,247.386 196.235,247.523 195.877 C 247.668 195.499,247.555 195.322,247.216 195.394 C 246.906 195.460,246.723 195.240,246.783 194.872 C 246.894 194.195,246.141 193.334,242.275 189.718 C 240.938 188.468,239.844 187.267,239.844 187.049 C 239.844 186.832,239.624 186.733,239.355 186.831 C 239.087 186.928,238.604 186.802,238.281 186.552 C 237.689 186.091,234.863 184.910,231.641 183.778 C 229.160 182.906,210.803 182.619,210.120 183.442 M183.713 212.792 C 186.034 212.861,189.725 212.861,191.916 212.791 C 194.106 212.722,192.207 212.665,187.695 212.665 C 183.184 212.666,181.391 212.723,183.713 212.792 M245.438 221.875 C 245.438 223.271,245.508 223.843,245.595 223.145 C 245.682 222.446,245.682 221.304,245.595 220.605 C 245.508 219.907,245.438 220.479,245.438 221.875 M194.332 232.074 C 194.759 232.587,195.155 233.081,195.211 233.171 C 195.267 233.260,195.313 233.083,195.313 232.776 C 195.313 232.470,194.917 231.976,194.434 231.679 L 193.555 231.139 194.332 232.074 M196.149 234.517 C 196.425 235.132,196.721 235.423,196.808 235.162 C 196.895 234.902,196.669 234.399,196.307 234.044 C 195.690 233.440,195.680 233.470,196.149 234.517 M182.671 238.770 C 180.845 241.688,171.422 271.916,172.043 272.864 C 172.907 274.183,174.676 274.300,175.834 273.115 C 177.411 271.501,187.314 240.020,186.592 238.917 C 185.696 237.549,183.487 237.466,182.671 238.770 M159.238 248.786 C 154.112 253.880,153.385 254.758,153.385 255.859 C 153.385 256.960,154.112 257.839,159.238 262.933 C 165.492 269.149,166.314 269.623,167.969 267.969 C 169.442 266.495,169.008 265.699,163.971 260.650 L 159.191 255.859 163.971 251.069 C 169.011 246.016,169.566 245.000,168.036 243.615 C 166.348 242.088,165.441 242.621,159.238 248.786 M190.625 243.750 C 189.179 245.196,189.607 245.980,194.609 251.039 L 199.374 255.859 194.609 260.679 C 189.607 265.738,189.179 266.523,190.625 267.969 C 192.298 269.641,193.112 269.165,199.498 262.779 C 207.002 255.274,207.002 256.444,199.498 248.940 C 193.112 242.554,192.298 242.077,190.625 243.750 M204.743 247.017 C 205.018 247.632,205.315 247.923,205.402 247.662 C 205.488 247.402,205.263 246.899,204.900 246.544 C 204.283 245.940,204.273 245.970,204.743 247.017 M208.478 252.503 C 208.864 253.020,209.240 253.278,209.314 253.076 C 209.476 252.633,208.644 251.563,208.137 251.563 C 207.938 251.563,208.092 251.986,208.478 252.503 M210.211 254.829 C 210.487 255.445,210.784 255.735,210.870 255.475 C 210.957 255.214,210.732 254.711,210.369 254.356 C 209.752 253.752,209.742 253.782,210.211 254.829 M213.830 260.099 C 214.657 261.030,214.844 261.116,214.844 260.561 C 214.844 260.353,214.448 259.976,213.965 259.723 C 213.091 259.264,213.090 259.266,213.830 260.099 " stroke="none" fill="#0b8990" fill-rule="evenodd"></path><path id="path2" d="M208.318 134.473 C 208.113 134.741,207.647 135.613,207.283 136.409 C 206.918 137.206,206.454 137.960,206.252 138.085 C 206.050 138.209,205.346 139.441,204.688 140.820 C 204.029 142.200,203.330 143.428,203.133 143.549 C 202.937 143.671,202.055 145.255,201.172 147.070 C 200.289 148.885,199.407 150.470,199.210 150.591 C 199.014 150.712,198.315 151.941,197.656 153.320 C 196.998 154.700,196.298 155.928,196.102 156.049 C 195.906 156.171,195.023 157.755,194.141 159.570 C 193.258 161.385,192.375 162.970,192.179 163.091 C 191.983 163.212,191.283 164.441,190.625 165.820 C 189.967 167.200,189.269 168.427,189.075 168.547 C 188.881 168.667,188.233 169.773,187.636 171.004 C 187.039 172.235,186.337 173.461,186.078 173.729 C 185.818 173.997,185.115 175.227,184.515 176.463 C 183.916 177.699,183.197 178.946,182.918 179.233 C 182.639 179.519,182.062 180.519,181.636 181.455 C 181.210 182.390,180.690 183.262,180.480 183.391 C 180.271 183.521,179.798 184.279,179.431 185.075 C 179.064 185.872,178.297 187.227,177.726 188.086 C 177.156 188.945,176.442 190.220,176.140 190.918 C 175.838 191.616,175.478 192.188,175.341 192.188 C 175.204 192.188,174.620 193.151,174.044 194.328 C 173.468 195.506,172.838 196.567,172.644 196.687 C 172.450 196.807,171.752 198.034,171.094 199.414 C 170.435 200.794,169.726 202.028,169.518 202.157 C 169.309 202.286,168.788 203.161,168.359 204.102 C 167.931 205.042,167.410 205.917,167.201 206.046 C 166.993 206.175,166.283 207.409,165.625 208.789 C 164.967 210.169,164.263 211.399,164.063 211.523 C 163.862 211.648,163.158 212.878,162.500 214.258 C 161.842 215.638,161.137 216.869,160.935 216.994 C 160.733 217.118,160.270 217.872,159.906 218.669 C 159.542 219.465,158.990 220.416,158.680 220.782 C 158.370 221.148,157.711 222.247,157.216 223.224 L 156.317 225.000 172.731 225.000 L 189.145 225.000 190.178 225.899 C 190.746 226.394,191.262 227.053,191.325 227.364 C 191.388 227.675,191.740 228.199,192.106 228.529 C 192.473 228.859,192.824 229.386,192.885 229.701 C 192.946 230.016,193.517 230.754,194.154 231.342 C 194.791 231.930,195.313 232.635,195.313 232.908 C 195.313 233.182,195.664 233.625,196.094 233.894 C 196.523 234.162,196.875 234.693,196.875 235.073 C 196.875 235.454,197.227 236.018,197.656 236.328 C 198.086 236.638,198.438 237.198,198.438 237.572 C 198.438 237.947,198.789 238.442,199.219 238.672 C 199.648 238.902,200.000 239.434,200.000 239.854 C 200.000 240.274,200.334 240.827,200.742 241.082 C 201.151 241.337,201.402 241.760,201.302 242.022 C 201.201 242.284,201.746 242.976,202.513 243.561 C 203.279 244.146,203.906 244.912,203.906 245.265 C 203.906 245.617,204.258 246.125,204.688 246.394 C 205.117 246.662,205.469 247.193,205.469 247.573 C 205.469 247.954,205.820 248.518,206.250 248.828 C 206.680 249.138,207.031 249.692,207.031 250.060 C 207.031 250.427,207.559 251.104,208.203 251.563 C 208.848 252.021,209.375 252.694,209.375 253.058 C 209.375 253.421,209.727 253.938,210.156 254.206 C 210.586 254.475,210.938 255.034,210.938 255.450 C 210.938 255.866,211.245 256.435,211.621 256.716 C 211.997 256.997,212.354 257.490,212.415 257.813 C 212.475 258.135,213.066 258.867,213.728 259.440 C 214.389 260.012,214.821 260.657,214.688 260.873 C 214.555 261.089,214.843 261.592,215.328 261.990 C 215.814 262.388,216.261 262.974,216.322 263.291 C 216.384 263.608,216.955 264.348,217.592 264.936 C 218.229 265.524,218.750 266.228,218.750 266.502 C 218.750 266.776,219.116 267.228,219.564 267.508 C 220.013 267.788,220.284 268.262,220.168 268.564 C 220.052 268.865,220.345 269.430,220.819 269.819 C 221.292 270.208,221.733 270.770,221.798 271.068 C 221.938 271.705,223.438 273.687,223.438 273.234 C 223.438 273.065,223.770 273.227,224.176 273.594 C 224.888 274.239,225.090 274.002,229.866 266.916 C 232.589 262.876,237.925 254.965,241.725 249.335 C 262.922 217.929,262.241 220.156,254.587 207.324 L 251.383 201.953 244.442 201.953 C 238.532 201.953,237.500 202.040,237.500 202.539 C 237.500 202.861,237.676 203.125,237.891 203.125 C 238.105 203.125,238.281 203.467,238.281 203.884 C 238.281 204.302,238.589 204.875,238.965 205.158 C 239.799 205.787,240.625 207.202,240.625 208.003 C 240.625 208.328,240.801 208.594,241.016 208.594 C 241.230 208.594,241.406 208.945,241.406 209.375 C 241.406 209.805,241.582 210.156,241.797 210.156 C 242.012 210.156,242.188 210.508,242.188 210.938 C 242.188 211.367,242.363 211.719,242.578 211.719 C 242.793 211.719,242.969 212.070,242.969 212.500 C 242.969 212.930,243.145 213.281,243.359 213.281 C 243.574 213.281,243.753 213.589,243.756 213.965 C 243.762 214.730,244.552 217.100,245.071 217.912 C 246.672 220.417,244.894 228.709,242.090 231.812 C 241.714 232.228,241.406 232.713,241.406 232.890 C 241.406 233.066,240.879 233.762,240.234 234.436 C 239.590 235.111,239.063 235.873,239.063 236.130 C 239.063 236.387,238.711 236.916,238.281 237.305 C 237.852 237.694,237.500 238.221,237.500 238.477 C 237.500 238.732,237.148 239.260,236.719 239.648 C 236.289 240.037,235.938 240.509,235.938 240.697 C 235.938 240.884,235.059 242.171,233.984 243.555 C 232.910 244.939,232.031 246.225,232.031 246.413 C 232.031 246.600,231.680 247.072,231.250 247.461 C 230.820 247.850,230.469 248.313,230.469 248.490 C 230.469 248.667,229.766 249.739,228.908 250.871 C 228.049 252.003,227.346 253.149,227.345 253.418 C 227.340 255.032,223.153 252.569,222.737 250.707 C 222.674 250.425,222.271 249.897,221.841 249.533 C 221.411 249.169,221.111 248.772,221.174 248.652 C 221.302 248.409,220.041 246.424,214.186 237.650 C 211.004 232.882,210.339 231.653,210.865 231.514 C 211.365 231.382,211.326 231.330,210.705 231.295 C 209.653 231.237,209.267 230.787,205.646 225.391 C 201.889 219.793,201.345 219.098,200.996 219.447 C 200.842 219.601,200.775 219.517,200.846 219.260 C 201.016 218.652,197.984 214.064,197.411 214.063 C 197.169 214.063,196.752 213.799,196.484 213.477 C 196.081 212.990,194.615 212.891,187.843 212.891 C 183.097 212.891,179.688 212.739,179.688 212.529 C 179.688 212.330,179.419 212.110,179.092 212.040 C 178.526 211.920,183.473 202.765,188.632 194.386 C 189.541 192.909,193.679 185.790,197.829 178.565 C 210.201 157.023,208.802 159.148,209.684 160.562 C 209.958 161.000,210.379 161.237,210.620 161.088 C 210.886 160.923,210.949 160.993,210.782 161.264 C 210.629 161.512,210.951 162.158,211.502 162.710 C 212.051 163.258,212.500 163.921,212.500 164.182 C 212.500 164.442,212.852 164.875,213.281 165.144 C 213.711 165.412,214.063 165.982,214.063 166.410 C 214.063 166.837,214.238 167.188,214.453 167.188 C 214.668 167.188,214.844 167.538,214.844 167.965 C 214.844 168.393,215.195 168.963,215.625 169.231 C 216.055 169.500,216.406 170.028,216.406 170.406 C 216.406 170.784,216.582 171.094,216.797 171.094 C 217.012 171.094,217.188 171.444,217.188 171.872 C 217.188 172.300,217.539 172.869,217.969 173.138 C 218.398 173.406,218.750 173.859,218.750 174.145 C 218.750 175.606,219.664 175.781,227.284 175.781 L 234.701 175.781 232.739 172.363 C 231.660 170.483,228.617 165.342,225.978 160.938 C 223.338 156.533,220.825 152.297,220.394 151.523 C 212.703 137.725,209.396 133.057,208.318 134.473 M237.599 224.414 C 237.603 225.273,237.683 225.579,237.776 225.093 C 237.870 224.607,237.866 223.904,237.768 223.531 C 237.671 223.157,237.594 223.555,237.599 224.414 " stroke="none" fill="#0c2569" fill-rule="evenodd"></path><path id="path3" d="M207.415 184.302 C 204.987 185.539,204.220 186.179,202.884 188.084 C 201.326 190.305,199.745 194.141,200.388 194.141 C 200.561 194.141,200.911 193.276,201.164 192.220 C 201.418 191.163,201.962 189.994,202.375 189.620 C 202.787 189.247,203.125 188.741,203.125 188.495 C 203.125 187.406,207.800 183.984,209.289 183.984 C 209.498 183.984,209.889 183.721,210.156 183.398 C 210.833 182.582,210.707 182.624,207.415 184.302 M219.221 183.102 C 220.662 183.177,223.123 183.177,224.690 183.103 C 226.257 183.029,225.078 182.967,222.070 182.967 C 219.062 182.966,217.780 183.027,219.221 183.102 M230.273 183.175 C 230.703 183.388,232.549 184.127,234.375 184.818 C 236.201 185.509,237.973 186.307,238.313 186.592 C 238.653 186.878,239.045 186.997,239.184 186.858 C 239.530 186.511,236.476 185.007,233.291 183.956 C 230.000 182.870,229.281 182.684,230.273 183.175 M239.844 187.263 C 239.844 187.565,244.564 191.982,245.053 192.137 C 245.651 192.327,241.413 187.944,240.527 187.457 C 240.151 187.251,239.844 187.164,239.844 187.263 M220.215 194.423 C 220.913 194.510,222.056 194.510,222.754 194.423 C 223.452 194.337,222.881 194.266,221.484 194.266 C 220.088 194.266,219.517 194.337,220.215 194.423 M200.106 196.094 C 200.106 197.061,200.183 197.456,200.276 196.973 C 200.369 196.489,200.369 195.698,200.276 195.215 C 200.183 194.731,200.106 195.127,200.106 196.094 M200.682 200.737 C 201.027 201.815,201.469 202.597,201.665 202.476 C 201.870 202.349,201.841 202.075,201.597 201.831 C 201.363 201.597,201.172 201.023,201.172 200.556 C 201.172 200.088,200.921 199.497,200.614 199.242 C 200.153 198.860,200.165 199.120,200.682 200.737 M214.779 200.274 C 215.514 201.328,217.094 202.607,219.434 204.043 C 219.702 204.208,219.922 204.195,219.922 204.014 C 219.922 203.832,219.354 203.348,218.659 202.938 C 217.964 202.528,216.611 201.479,215.651 200.608 C 214.010 199.117,213.958 199.097,214.779 200.274 M236.128 200.545 C 236.719 201.319,237.489 201.941,237.839 201.927 C 238.298 201.908,238.230 201.781,237.598 201.476 C 237.114 201.243,236.719 200.822,236.719 200.540 C 236.719 200.258,236.344 199.827,235.886 199.582 C 235.152 199.189,235.181 199.304,236.128 200.545 M242.480 201.838 C 242.964 201.931,243.755 201.931,244.238 201.838 C 244.722 201.745,244.326 201.669,243.359 201.669 C 242.393 201.669,241.997 201.745,242.480 201.838 M202.725 204.575 C 203.230 205.479,204.258 206.798,205.011 207.504 L 206.379 208.789 205.576 207.617 C 205.134 206.973,204.401 206.110,203.948 205.701 C 203.496 205.292,203.125 204.742,203.125 204.479 C 203.125 204.217,202.829 203.761,202.466 203.466 C 201.984 203.074,202.053 203.371,202.725 204.575 M220.471 204.628 C 220.918 205.351,225.298 208.594,225.827 208.594 C 226.100 208.594,225.718 208.157,224.978 207.624 C 224.238 207.090,223.126 206.255,222.506 205.768 C 220.947 204.543,220.139 204.090,220.471 204.628 M227.344 209.961 C 227.848 210.498,228.528 210.938,228.855 210.938 C 229.192 210.938,228.875 210.515,228.125 209.961 C 227.397 209.424,226.717 208.984,226.614 208.984 C 226.511 208.984,226.839 209.424,227.344 209.961 M232.412 214.214 C 234.018 215.849,235.507 217.188,235.721 217.188 C 236.223 217.188,231.303 212.183,230.273 211.647 C 229.844 211.423,230.806 212.578,232.412 214.214 M211.602 212.377 C 211.496 212.552,211.830 213.011,212.345 213.397 C 212.860 213.783,213.281 213.942,213.281 213.751 C 213.281 213.213,211.821 212.018,211.602 212.377 M215.289 215.591 C 215.796 216.003,216.280 216.270,216.364 216.187 C 216.650 215.903,215.533 214.844,214.948 214.844 C 214.552 214.844,214.661 215.082,215.289 215.591 M224.842 226.761 C 224.326 228.835,222.150 230.520,219.025 231.263 C 217.984 231.511,217.933 231.567,218.723 231.601 C 221.582 231.721,225.941 228.019,225.279 226.033 C 225.198 225.791,225.002 226.118,224.842 226.761 M212.774 235.254 C 216.348 240.840,218.730 244.141,216.791 240.820 C 215.631 238.835,212.828 234.766,212.619 234.766 C 212.532 234.766,212.602 234.985,212.774 235.254 M163.670 251.369 L 159.188 255.864 163.869 260.451 L 168.550 265.039 164.067 260.449 L 159.583 255.859 164.063 251.367 C 166.526 248.896,168.454 246.875,168.347 246.875 C 168.239 246.875,166.135 248.897,163.670 251.369 M194.336 251.172 C 196.692 253.535,198.707 255.469,198.815 255.469 C 198.922 255.469,197.083 253.535,194.727 251.172 C 192.371 248.809,190.355 246.875,190.248 246.875 C 190.140 246.875,191.980 248.809,194.336 251.172 " stroke="none" fill="#44abad" fill-rule="evenodd"></path><path id="path4" d="M207.404 134.277 C 207.107 134.868,206.577 135.791,206.226 136.328 C 205.875 136.865,205.059 138.271,204.413 139.453 C 203.767 140.635,202.774 142.437,202.205 143.457 C 201.637 144.478,200.757 146.060,200.250 146.973 C 199.743 147.886,198.777 149.563,198.102 150.701 C 197.427 151.838,196.875 152.866,196.875 152.984 C 196.875 153.103,196.551 153.666,196.155 154.237 C 195.759 154.807,194.732 156.592,193.874 158.203 C 193.015 159.814,191.757 162.063,191.078 163.201 C 190.399 164.338,189.844 165.366,189.844 165.484 C 189.844 165.603,189.519 166.166,189.122 166.737 C 188.725 167.307,187.872 168.740,187.226 169.922 C 186.580 171.104,185.499 173.001,184.823 174.138 C 184.147 175.276,183.594 176.274,183.594 176.356 C 183.594 176.438,182.735 177.905,181.685 179.616 C 180.635 181.326,179.256 183.668,178.621 184.820 C 177.985 185.972,175.856 189.598,173.889 192.877 C 171.922 196.157,170.313 198.903,170.313 198.978 C 170.313 199.054,169.082 201.159,167.578 203.656 C 166.074 206.154,164.844 208.303,164.844 208.433 C 164.844 208.562,164.519 209.135,164.122 209.705 C 163.725 210.276,162.876 211.709,162.234 212.891 C 161.593 214.072,160.272 216.357,159.300 217.969 C 156.453 222.688,155.415 224.686,155.678 224.949 C 156.030 225.302,189.806 225.645,189.588 225.293 C 189.489 225.132,181.932 225.000,172.796 225.000 C 163.660 225.000,156.245 224.868,156.319 224.707 C 157.471 222.190,158.275 220.705,158.594 220.508 C 158.810 220.374,159.337 219.495,159.766 218.555 C 160.194 217.614,160.710 216.742,160.911 216.618 C 161.113 216.493,161.759 215.384,162.347 214.153 C 162.934 212.921,163.633 211.650,163.900 211.328 C 164.167 211.006,164.891 209.775,165.509 208.594 C 166.127 207.412,167.109 205.702,167.692 204.793 C 168.274 203.884,168.750 203.019,168.750 202.871 C 168.750 202.722,168.998 202.323,169.302 201.984 C 169.605 201.645,170.359 200.400,170.978 199.219 C 171.596 198.037,172.578 196.327,173.160 195.418 C 173.742 194.509,174.219 193.683,174.219 193.582 C 174.219 193.481,174.746 192.617,175.391 191.662 C 176.035 190.707,176.563 189.753,176.563 189.542 C 176.563 189.331,176.822 188.943,177.139 188.679 C 177.457 188.416,178.199 187.208,178.789 185.995 C 179.379 184.782,180.350 183.060,180.946 182.170 C 181.543 181.279,182.031 180.414,182.031 180.248 C 182.031 180.081,182.280 179.667,182.583 179.328 C 182.887 178.988,183.659 177.696,184.300 176.456 C 184.941 175.216,185.644 173.985,185.861 173.722 C 186.078 173.458,186.762 172.275,187.382 171.094 C 188.001 169.912,188.944 168.242,189.478 167.383 C 190.011 166.523,190.700 165.293,191.008 164.648 C 191.316 164.004,191.782 163.213,192.044 162.891 C 192.306 162.568,193.199 160.986,194.030 159.375 C 194.861 157.764,195.983 155.742,196.524 154.883 C 197.064 154.023,197.808 152.669,198.178 151.872 C 198.547 151.076,199.011 150.324,199.208 150.202 C 199.406 150.080,200.289 148.495,201.172 146.680 C 202.055 144.865,202.932 143.284,203.121 143.166 C 203.311 143.049,203.955 141.946,204.554 140.715 C 205.153 139.484,206.087 137.773,206.630 136.914 C 207.173 136.055,207.814 135.000,208.055 134.570 C 208.336 134.069,208.805 133.835,209.367 133.919 C 209.918 134.000,210.145 133.892,209.981 133.626 C 209.465 132.791,207.960 133.172,207.404 134.277 M218.789 175.293 C 219.322 176.161,219.422 176.171,226.949 176.083 L 234.570 175.995 227.169 175.879 C 220.818 175.780,219.661 175.668,219.009 175.089 C 218.272 174.435,218.265 174.441,218.789 175.293 M206.435 184.400 C 205.151 185.058,203.888 185.893,203.627 186.255 C 203.365 186.617,202.973 187.123,202.754 187.379 C 202.074 188.174,200.781 190.625,200.781 191.119 C 200.781 191.378,201.089 191.027,201.465 190.340 C 203.170 187.226,204.605 185.679,206.774 184.618 C 207.990 184.023,208.984 183.461,208.984 183.370 C 208.984 183.103,208.885 183.143,206.435 184.400 M242.773 189.453 C 243.613 190.313,244.387 191.016,244.494 191.016 C 244.602 191.016,244.003 190.313,243.164 189.453 C 242.325 188.594,241.550 187.891,241.443 187.891 C 241.336 187.891,241.934 188.594,242.773 189.453 M236.914 202.344 C 237.247 202.988,237.608 203.516,237.715 203.516 C 237.823 203.516,237.638 202.988,237.305 202.344 C 236.971 201.699,236.611 201.172,236.503 201.172 C 236.396 201.172,236.581 201.699,236.914 202.344 M242.461 212.695 C 242.820 213.447,243.251 214.063,243.419 214.063 C 243.586 214.063,243.361 213.447,242.917 212.695 C 242.473 211.943,242.043 211.328,241.960 211.328 C 241.877 211.328,242.103 211.943,242.461 212.695 M232.813 213.867 C 233.979 215.049,235.022 216.016,235.130 216.016 C 235.237 216.016,234.370 215.049,233.203 213.867 C 232.036 212.686,230.993 211.719,230.886 211.719 C 230.779 211.719,231.646 212.686,232.813 213.867 M187.714 212.485 C 194.728 212.664,196.106 212.799,197.089 213.404 L 198.242 214.112 197.146 213.111 L 196.050 212.109 187.771 212.192 L 179.492 212.274 187.714 212.485 M244.704 221.815 C 244.680 225.953,244.037 227.629,240.716 232.211 C 239.393 234.037,237.634 236.580,229.491 248.438 C 227.794 250.908,226.247 253.040,226.052 253.174 C 225.578 253.501,226.451 254.021,226.953 253.711 C 227.168 253.578,227.355 253.260,227.370 253.004 C 227.384 252.748,227.998 251.748,228.735 250.781 C 229.472 249.814,230.233 248.665,230.427 248.226 C 230.620 247.788,231.060 247.195,231.405 246.909 C 231.749 246.623,232.031 246.168,232.031 245.898 C 232.031 245.629,232.312 245.175,232.656 244.890 C 233.213 244.427,236.235 240.135,237.339 238.236 C 237.573 237.834,238.057 237.183,238.414 236.788 C 238.770 236.394,239.063 235.887,239.063 235.662 C 239.063 235.436,239.344 235.019,239.687 234.734 C 240.390 234.150,243.351 229.619,244.006 228.125 C 245.156 225.500,245.313 224.730,245.313 221.684 C 245.313 219.881,245.181 218.324,245.020 218.224 C 244.858 218.125,244.717 219.740,244.704 221.815 M224.394 227.018 C 224.005 228.242,222.668 229.453,220.792 230.281 C 219.892 230.678,219.222 231.071,219.305 231.154 C 219.606 231.455,222.874 229.730,223.686 228.842 C 224.480 227.973,225.271 226.172,224.857 226.172 C 224.750 226.172,224.541 226.552,224.394 227.018 M199.213 248.535 C 202.111 251.489,204.528 253.906,204.584 253.906 C 204.864 253.906,204.306 253.326,199.316 248.432 L 193.945 243.164 199.213 248.535 M203.526 245.855 C 204.238 246.846,204.884 247.656,204.963 247.656 C 205.218 247.656,204.305 246.145,203.898 245.893 C 203.681 245.759,203.599 245.494,203.716 245.305 C 203.832 245.116,203.547 244.757,203.080 244.507 C 202.371 244.128,202.444 244.348,203.526 245.855 M194.539 260.352 L 190.055 265.039 194.717 260.464 C 197.281 257.948,199.299 255.839,199.201 255.777 C 199.104 255.715,197.006 257.773,194.539 260.352 M199.409 262.988 L 193.945 268.555 199.512 263.091 C 204.683 258.016,205.255 257.422,204.975 257.422 C 204.919 257.422,202.414 259.927,199.409 262.988 M223.329 273.857 C 223.806 274.354,224.295 274.663,224.415 274.543 C 224.535 274.423,224.145 274.016,223.547 273.639 L 222.461 272.953 223.329 273.857 " stroke="none" fill="#9294ae" fill-rule="evenodd"></path></g></svg>