<?xml version="1.0" encoding="UTF-8"?>
<svg version="1.1" xmlns="http://www.w3.org/2000/svg" width="320" height="320">
<path d="M0 0 C6.05536031 4.47664137 9.61705461 9.54662139 12.1875 16.6171875 C12.57239651 19.3548317 12.86203873 21.99539455 13.0625 24.7421875 C14.08151342 35.30969134 16.75898309 44.76418391 24.1875 52.6171875 C24.1875 53.2771875 24.1875 53.9371875 24.1875 54.6171875 C24.74695313 54.8853125 25.30640625 55.1534375 25.8828125 55.4296875 C29.22674427 57.15266251 32.36903257 59.18241168 35.5546875 61.1796875 C44.79891691 66.22698189 56.6682615 66.14070519 66.78125 63.77734375 C77.67859671 59.6065809 85.21904194 52.08130334 90.1875 41.6171875 C92.46084363 36.13441758 93.30612347 31.03026751 93.625 25.1171875 C94.22696698 15.63063385 96.88090133 8.7689485 104.00390625 2.3125 C110.82658456 -2.98453468 117.14385145 -4.11170863 125.75 -3.82421875 C133.97258903 -2.76836357 139.43267498 1.15574682 144.71484375 7.359375 C149.95565724 15.39436226 150.13688427 23.37894822 149.1875 32.6171875 C147.09776063 40.08607079 142.55243164 45.32595298 136.1875 49.6171875 C131.00124906 52.30292459 126.19406305 52.88708276 120.4375 53.4921875 C108.18739078 54.83598564 98.31982672 59.02335723 90.1875 68.6171875 C84.77620155 77.04848446 82.45585865 85.24779198 81.8125 95.1171875 C81.04525549 104.28575943 77.0754995 111.52395717 70.1875 117.6171875 C63.0247306 122.81271742 55.8692986 123.79216776 47.1875 122.6171875 C40.03214907 120.60941739 34.79048553 116.66639912 30 111.0546875 C26.29782463 104.03332041 25.24812109 96.43205345 24.375 88.6171875 C23.02222165 78.4262573 18.39210158 68.44961758 10.15625 62.03515625 C0.15402965 54.99592241 -10.06489669 52.44770319 -22.3125 54.1796875 C-33.18354146 56.53612712 -42.39092501 61.85658909 -48.49609375 71.19140625 C-52.55455217 78.16961893 -54.3155431 84.28053532 -55.2265625 92.23046875 C-56.58354469 103.85681617 -58.30461528 110.33657641 -67.46484375 117.91796875 C-74.3426877 122.89610872 -81.44324925 123.60958877 -89.8125 122.6171875 C-98.40684966 120.17665462 -104.27929546 115.05753421 -108.83203125 107.484375 C-112.36104243 100.76378796 -111.96979812 90.81374517 -109.9765625 83.5859375 C-106.42060517 75.85352023 -100.61045722 70.45411131 -92.74414062 67.2355957 C-89.38749712 66.16097766 -85.99769077 65.95047391 -82.5 65.6796875 C-70.51439125 64.47466886 -61.42926477 60.7055257 -53.05859375 51.73828125 C-45.89527483 42.85145703 -44.18143572 33.38682807 -43.11450195 22.28051758 C-42.06165724 12.95667653 -38.06224865 6.96142808 -30.828125 1.09375 C-21.80061515 -5.51942582 -9.65353073 -5.62064125 0 0 Z " fill="#186CFC" transform="translate(140.8125,100.3828125)"/>
</svg>
