<?xml version="1.0" standalone="no"?>
<!DOCTYPE svg PUBLIC "-//W3C//DTD SVG 20010904//EN"
 "http://www.w3.org/TR/2001/REC-SVG-20010904/DTD/svg10.dtd">
<svg version="1.0" xmlns="http://www.w3.org/2000/svg"
 width="2100.000000pt" height="1500.000000pt" viewBox="0 0 2100.000000 1500.000000"
 preserveAspectRatio="xMidYMid meet">

<g transform="translate(0.000000,1500.000000) scale(0.100000,-0.100000)"
fill="#000000" stroke="none">
<path d="M4614 12103 c-38 -6 -96 -12 -129 -12 -34 -1 -66 -6 -73 -13 -6 -6
-30 -14 -54 -18 -52 -9 -100 -26 -150 -51 -20 -10 -43 -19 -51 -19 -8 0 -20
-7 -27 -15 -7 -8 -19 -15 -27 -15 -8 0 -32 -13 -53 -30 -21 -16 -43 -30 -48
-30 -6 0 -31 -17 -55 -37 -25 -21 -70 -58 -102 -83 -32 -25 -76 -70 -98 -100
-22 -30 -52 -69 -66 -85 -15 -17 -40 -57 -56 -90 -17 -33 -33 -61 -37 -63 -5
-2 -8 -9 -8 -15 0 -7 -9 -29 -20 -50 -11 -20 -20 -45 -20 -55 0 -10 -7 -27
-15 -38 -8 -10 -15 -33 -15 -49 0 -17 -6 -39 -14 -50 -7 -11 -16 -52 -19 -92
-3 -40 -12 -82 -19 -95 -11 -19 -13 -596 -16 -3178 -2 -3136 -2 -3154 18
-3212 12 -35 20 -84 20 -122 0 -35 7 -80 15 -99 8 -20 15 -50 15 -67 0 -16 4
-30 10 -30 5 0 13 -12 16 -27 4 -16 13 -39 20 -53 7 -14 15 -32 18 -40 4 -8
17 -33 31 -55 13 -22 29 -51 35 -65 6 -14 22 -36 34 -50 13 -14 33 -43 46 -65
27 -45 134 -151 195 -193 22 -15 54 -39 70 -54 17 -16 37 -28 45 -28 9 0 20
-4 26 -10 17 -17 165 -90 183 -90 9 0 26 -7 37 -15 10 -8 33 -15 50 -15 16 0
39 -7 50 -15 10 -8 40 -15 66 -15 26 0 67 -8 90 -18 41 -16 216 -17 3213 -17
2961 1 3173 2 3218 18 26 9 67 17 90 17 23 0 51 7 61 15 11 8 34 15 51 15 17
0 40 7 51 15 10 8 29 15 41 15 20 0 84 27 123 51 8 5 27 14 43 20 15 6 27 15
27 20 0 5 6 9 14 9 17 0 175 117 239 177 49 46 153 179 175 223 7 14 23 45 37
69 14 24 25 53 25 63 0 10 7 21 15 24 9 4 15 19 15 38 0 17 7 39 15 50 8 10
17 38 21 62 3 24 12 49 20 55 9 7 14 33 14 73 1 38 6 68 15 80 22 29 22 6360
0 6421 -8 22 -15 63 -15 91 0 30 -8 70 -20 95 -11 24 -20 55 -20 69 0 14 -7
34 -15 44 -8 11 -15 32 -15 47 0 15 -7 29 -15 33 -8 3 -15 16 -15 29 0 14 -7
30 -15 37 -8 7 -15 19 -15 27 0 23 -148 221 -224 301 -56 58 -202 165 -263
191 -11 6 -24 15 -28 20 -3 6 -14 11 -24 11 -10 0 -30 9 -44 20 -14 11 -39 20
-55 20 -16 0 -35 7 -42 15 -7 8 -29 15 -49 15 -21 0 -46 7 -57 15 -12 9 -43
14 -86 15 -37 0 -89 5 -115 10 -74 16 -6220 19 -6309 3z m4074 -1590 c39 -13
64 -28 88 -57 44 -51 50 -76 30 -126 -9 -22 -16 -51 -16 -64 0 -14 -6 -37 -14
-53 -19 -38 -36 -89 -48 -143 -6 -25 -15 -48 -20 -51 -6 -4 -13 -27 -15 -53
-3 -25 -12 -51 -19 -57 -8 -6 -14 -28 -14 -48 0 -21 -7 -46 -15 -57 -8 -10
-15 -34 -15 -52 0 -18 -6 -45 -14 -60 -7 -15 -16 -47 -20 -71 -4 -24 -13 -53
-21 -64 -8 -12 -15 -37 -15 -57 0 -19 -7 -44 -15 -54 -8 -11 -15 -31 -15 -45
-1 -14 -9 -44 -20 -66 -11 -24 -16 -51 -13 -67 3 -18 -2 -39 -16 -61 -12 -20
-21 -51 -21 -74 0 -21 -7 -48 -15 -59 -8 -10 -15 -34 -15 -52 0 -18 -6 -43
-14 -55 -8 -12 -17 -40 -21 -62 -4 -21 -13 -52 -21 -67 -8 -15 -14 -42 -14
-60 0 -18 -7 -42 -15 -52 -8 -11 -15 -36 -15 -56 0 -19 -6 -44 -14 -55 -7 -11
-16 -39 -19 -61 -4 -23 -14 -54 -22 -70 -8 -16 -15 -42 -15 -59 -1 -16 -7 -41
-15 -55 -8 -14 -14 -44 -15 -66 0 -24 -6 -47 -15 -54 -9 -7 -15 -29 -15 -54 0
-23 -6 -50 -14 -61 -7 -11 -16 -40 -19 -65 -3 -25 -13 -59 -21 -75 -9 -17 -16
-43 -16 -60 -1 -16 -7 -41 -15 -55 -8 -14 -14 -39 -15 -56 0 -16 -7 -39 -15
-50 -8 -10 -15 -32 -15 -49 0 -16 -6 -42 -14 -57 -8 -14 -17 -46 -21 -70 -4
-24 -13 -53 -21 -65 -8 -12 -14 -40 -14 -61 0 -21 -7 -47 -15 -58 -8 -10 -15
-36 -15 -57 0 -20 -9 -54 -20 -74 -11 -21 -20 -54 -20 -73 -1 -19 -7 -46 -15
-60 -8 -14 -15 -38 -15 -55 0 -16 -7 -41 -15 -55 -8 -14 -14 -41 -15 -60 0
-19 -7 -48 -15 -63 -8 -15 -17 -45 -21 -65 -4 -20 -13 -51 -21 -69 -7 -18 -13
-45 -13 -60 0 -15 -7 -37 -15 -47 -8 -11 -15 -38 -15 -60 0 -23 -7 -50 -15
-60 -8 -11 -15 -34 -15 -51 0 -16 -9 -47 -20 -68 -11 -20 -20 -54 -20 -76 0
-21 -7 -52 -15 -67 -8 -16 -15 -43 -15 -60 0 -16 -7 -39 -15 -50 -8 -10 -15
-35 -15 -54 0 -19 -6 -47 -14 -61 -7 -14 -16 -46 -20 -71 -4 -25 -13 -54 -21
-64 -8 -11 -15 -39 -15 -64 0 -25 -7 -54 -15 -64 -8 -11 -15 -34 -15 -50 0
-17 -6 -43 -13 -57 -8 -14 -17 -43 -20 -66 -4 -22 -14 -53 -22 -69 -8 -16 -15
-45 -15 -65 0 -19 -7 -44 -15 -55 -8 -10 -15 -32 -15 -49 0 -16 -6 -42 -13
-56 -8 -14 -17 -44 -21 -68 -8 -53 -45 -111 -92 -148 l-37 -28 -231 -3 c-224
-3 -232 -2 -276 20 l-45 23 -3 82 c-2 59 2 91 13 112 8 17 15 43 15 58 1 15 9
46 20 68 11 22 20 54 20 70 0 17 7 41 15 55 8 14 14 39 15 56 0 16 7 39 15 50
8 10 15 37 15 60 0 22 7 49 15 60 8 10 15 33 15 49 0 17 9 45 20 63 11 18 20
50 20 71 0 22 6 44 15 51 9 7 15 29 15 52 0 22 6 52 14 66 20 38 46 118 56
176 5 27 14 54 20 60 5 5 10 26 10 46 0 20 7 45 15 56 8 10 15 34 15 52 0 18
9 50 20 72 11 22 20 54 20 72 0 18 7 42 15 52 8 11 15 36 15 55 1 20 7 47 15
61 8 14 15 39 15 55 0 17 9 48 20 70 11 22 19 52 20 66 0 14 7 34 15 45 8 10
15 37 15 60 0 22 7 49 15 60 8 10 15 35 15 54 0 19 7 46 15 60 8 14 14 41 15
60 0 20 9 53 20 75 11 22 20 53 20 70 0 16 7 39 15 49 8 11 15 34 15 51 0 17
7 40 15 51 8 10 15 35 15 54 0 19 7 48 16 65 8 16 18 50 21 75 3 25 12 55 19
67 8 12 14 39 14 60 0 21 7 47 15 57 8 11 15 34 15 51 0 16 9 47 20 68 11 20
20 54 20 74 0 21 7 47 15 57 8 11 15 34 15 50 0 17 7 44 15 60 8 15 15 42 15
60 0 17 7 44 15 60 8 16 18 47 22 70 3 22 12 50 19 61 8 11 14 36 14 55 0 20
7 45 15 56 8 10 15 36 15 57 0 21 6 50 14 65 7 15 16 46 20 68 3 23 13 54 21
70 8 16 15 43 15 59 1 17 7 41 15 55 8 14 14 41 15 61 0 19 7 44 15 55 8 10
15 33 15 49 0 17 9 56 20 88 11 31 20 67 20 81 0 13 7 29 15 36 9 7 15 30 15
54 1 22 7 52 15 66 8 14 14 43 15 65 0 22 9 57 20 78 11 20 20 52 20 69 0 18
7 42 15 52 8 11 15 36 15 56 0 20 7 45 15 56 8 10 15 35 15 54 0 19 6 46 13
61 8 14 17 48 20 77 3 29 13 62 22 74 8 13 15 36 15 52 0 41 36 111 68 132 63
43 111 51 286 53 135 1 180 -2 224 -16z m-2168 -821 c119 -58 275 -230 301
-330 17 -69 2 -129 -48 -191 -20 -24 -331 -337 -690 -695 -359 -358 -653 -657
-653 -665 0 -8 302 -317 672 -687 713 -715 708 -709 695 -788 -13 -76 -25
-114 -49 -151 -38 -60 -221 -231 -261 -244 -51 -17 -146 8 -200 52 -99 81
-1636 1620 -1675 1677 -39 56 -42 66 -42 125 0 94 28 142 150 258 51 49 1515
1504 1579 1569 9 9 41 32 71 52 61 40 96 44 150 18z m2639 -12 c23 -17 142
-132 264 -256 122 -124 513 -517 869 -873 357 -355 648 -650 648 -654 0 -5 7
-24 16 -42 14 -30 14 -37 -6 -99 -12 -36 -26 -66 -31 -66 -5 0 -9 -7 -9 -15 0
-8 -19 -31 -42 -52 -24 -21 -173 -166 -332 -323 -159 -157 -326 -321 -370
-365 -45 -44 -285 -282 -534 -528 -283 -281 -465 -454 -487 -463 -65 -27 -155
-8 -233 50 -56 41 -180 174 -204 219 -25 44 -33 96 -19 118 6 11 11 25 11 33
0 9 11 32 25 53 25 37 471 482 990 988 142 138 284 281 317 318 59 66 60 69
47 95 -17 32 -257 283 -669 701 -47 48 -170 173 -275 279 -104 107 -221 224
-260 260 -38 37 -79 80 -90 96 -11 16 -30 40 -41 55 -12 14 -24 36 -28 49 -10
30 15 110 72 228 25 52 138 160 202 194 74 38 116 38 169 0z"/>
<path d="M12937 12029 c-322 -42 -592 -296 -659 -619 -19 -97 -19 -7053 0
-7150 68 -330 336 -577 672 -619 116 -15 2024 -15 2140 0 336 42 604 289 672
619 19 97 19 7053 0 7150 -68 330 -336 577 -672 619 -104 13 -2052 13 -2153 0z
m2094 -2634 c290 -935 530 -1710 534 -1722 l5 -23 -423 0 -424 0 -118 393
c-65 215 -124 413 -132 440 l-14 47 -492 -2 -491 -3 -121 -435 -120 -435 -409
-3 -408 -2 6 24 c5 21 1030 3382 1041 3414 4 10 113 12 522 10 l517 -3 527
-1700z m-563 -1836 c224 -24 602 -130 602 -169 0 -5 -33 -130 -74 -278 -41
-147 -79 -286 -85 -308 l-11 -42 -108 44 c-199 81 -389 117 -612 116 -200 -1
-321 -37 -415 -123 -109 -100 -118 -272 -20 -387 67 -79 188 -143 525 -277
346 -137 498 -221 648 -360 187 -173 277 -369 289 -631 14 -302 -78 -552 -279
-752 -126 -127 -276 -215 -478 -283 -203 -68 -323 -84 -630 -84 -297 0 -394
11 -628 71 -137 35 -306 96 -340 123 -19 16 -18 21 60 337 l79 321 127 -53
c425 -177 893 -209 1119 -77 46 27 114 96 136 140 25 47 37 136 27 197 -28
175 -169 280 -580 431 -354 131 -587 275 -740 458 -67 79 -149 236 -175 332
-22 82 -30 282 -16 374 37 237 163 455 348 602 180 143 398 232 663 273 115
17 432 20 568 5z"/>
<path d="M13950 10505 c0 -38 -162 -687 -249 -995 l-108 -385 370 -3 c204 -1
372 0 374 2 3 2 -52 197 -121 433 -69 236 -155 545 -192 688 -60 235 -74 285
-74 260z"/>
</g>
</svg>
